<svg xmlns="http://www.w3.org/2000/svg" viewBox="0 0 960 220" font-family="system-ui, -apple-system, Segoe UI, Roboto, sans-serif">
  <defs>
    <marker id="arrow" viewBox="0 0 10 10" refX="9" refY="5" markerWidth="7" markerHeight="7" orient="auto-start-reverse">
      <path d="M0,0 L10,5 L0,10 z" fill="#57606a"/>
    </marker>
  </defs>

  <rect x="10" y="10" width="940" height="200" rx="14" fill="#f6f8fa" stroke="#d0d7de" stroke-width="1.5"/>

  <text x="40" y="48" font-size="17" font-weight="700" fill="#1f6feb">EXTRAS<tspan font-size="13" font-weight="400" fill="#57606a">&#160;&#160;&#160;carry the room and join link onto your phone</tspan></text>

  <text x="200" y="84" font-size="11" font-weight="600" fill="#57606a" text-anchor="middle" letter-spacing="0.5">WORK CALENDAR</text>
  <text x="760" y="84" font-size="11" font-weight="600" fill="#57606a" text-anchor="middle" letter-spacing="0.5">PERSONAL CALENDAR &#183; ON YOUR PHONE</text>

  <!-- source: work meeting with room + zoom -->
  <rect x="80" y="98" width="240" height="92" rx="8" fill="#e7effb" stroke="#aac4ee"/>
  <rect x="80" y="98" width="5" height="92" rx="2.5" fill="#1f6feb"/>
  <text x="100" y="124" font-size="14" font-weight="600" fill="#24292f">Project Review</text>
  <text x="100" y="146" font-size="11" fill="#57606a">&#128205; Banana - 4th floor</text>
  <text x="100" y="167" font-size="11" fill="#1f6feb" text-decoration="underline">zoom.us/j/88213</text>

  <!-- arrow -->
  <line x1="330" y1="144" x2="628" y2="144" stroke="#57606a" stroke-width="1.5" marker-end="url(#arrow)"/>
  <rect x="442" y="132" width="72" height="24" rx="12" fill="#1f6feb"/>
  <text x="478" y="148" font-size="12" font-weight="600" fill="#ffffff" text-anchor="middle">mirror</text>
  <text x="478" y="174" font-size="11" fill="#57606a" text-anchor="middle">room + join link kept</text>

  <!-- target: same room, on personal -->
  <rect x="640" y="98" width="240" height="92" rx="8" fill="#e7effb" stroke="#aac4ee"/>
  <rect x="640" y="98" width="5" height="92" rx="2.5" fill="#1f6feb"/>
  <text x="660" y="124" font-size="14" font-weight="600" fill="#24292f">Project Review</text>
  <text x="660" y="146" font-size="11" font-weight="600" fill="#1a7f37">&#128205; Banana - 4th floor</text>
  <text x="660" y="167" font-size="11" fill="#1f6feb" text-decoration="underline">zoom.us/j/88213</text>
</svg>
